<svg width="1000" height="239" viewBox="0 0 1000 239" fill="none" xmlns="http://www.w3.org/2000/svg" style="color:#ffffff">
<path d="M758.9 78.3C751.6 65.8 741.7 55.9 729.3 48.6C716.8 41.3 703.3 37.7 688.5 37.7H607V200.5H688.5C703.2 200.5 716.8 196.9 729.3 189.6C741.7 182.3 751.6 172.5 758.9 160C766.2 147.6 769.8 134 769.8 119.2C769.8 104.4 766.2 90.9 758.9 78.3ZM633.9 64.5H688.6C703.6 64.5 716.5 69.9 727.1 80.6C737.7 91.3 743 104.2 743 119.2C743 134.2 737.7 147.1 727.1 157.7C716.5 168.3 703.6 173.6 688.6 173.6H633.9V64.5Z" fill="currentColor"/>
<path d="M212.8 37.7V200.5H185.9V195.2L76.8 79.7V200.5H49.9V37.7H69.9C71.2 37.7 72.6 37.7 73.9 37.7H74L104.1 69.6L182.4 152.5L185.8 156V37.7H212.7H212.8Z" fill="currentColor"/>
<path d="M939.1 78.3C931.8 65.8 922 55.9 909.5 48.6C897.1 41.3 883.5 37.7 868.7 37.7C853.9 37.7 840.4 41.3 827.8 48.6C815.3 55.9 805.4 65.8 798.1 78.3C790.8 90.8 787.2 104.4 787.2 119.2C787.2 134 790.8 147.5 798.1 160C805.4 172.5 815.3 182.3 827.8 189.6C840.3 196.9 853.9 200.5 868.7 200.5C883.5 200.5 897 196.9 909.5 189.6C922 182.3 931.8 172.5 939.1 160C946.4 147.6 950 134 950 119.2C950 104.4 946.4 90.9 939.1 78.3ZM923.1 119.2C923.1 134.2 917.8 147.1 907.2 157.7C896.6 168.3 883.8 173.6 868.7 173.6C853.6 173.6 840.8 168.3 830.1 157.7C819.4 147.1 814 134.3 814 119.2C814 104.1 819.4 91.3 830.1 80.6C840.8 69.9 853.7 64.5 868.7 64.5C883.7 64.5 896.6 69.9 907.2 80.6C917.8 91.3 923.1 104.2 923.1 119.2Z" fill="currentColor"/>
<path d="M577.9 82.3C582 72.4 584 62 584 51.1V37.7H421.2V200.5H448.1V132.6H502.8C517.8 132.6 530.7 137.9 541.3 148.5C551.9 159.1 557.2 172 557.2 187V200.4H584.1V187C584.1 176.2 582.1 165.9 578 155.9C573.9 146 568 137.1 560.5 129.4C556.6 125.6 552.3 122.2 547.7 119.2C552.3 116.2 556.5 112.7 560.5 108.7C568.1 101 573.9 92.2 578 82.3H577.9ZM502.7 105.8H448V64.6H555.5C552.5 76.6 546 86.5 536 94.2C526 101.9 514.9 105.8 502.6 105.8H502.7Z" fill="currentColor"/>
<path d="M378 37.7C376.9 37.7 375.8 37.7 374.8 37.7C373.6 37.7 372.4 37.7 371.3 37.8C370.1 37.8 369 37.9 367.8 38C367.8 38 367.8 38 367.7 38C366.5 38 365.4 38.2 364.2 38.3C363 38.4 361.9 38.5 360.7 38.7C359.5 38.8 358.4 39 357.2 39.2C356 39.4 354.9 39.6 353.7 39.7C352.5 39.9 351.4 40.1 350.3 40.3C349.2 40.5 348 40.8 346.9 41C345.9 41.2 344.9 41.5 343.8 41.7C343.6 41.7 343.5 41.7 343.3 41.8C340.8 42.4 338.3 43.1 335.8 43.9C334.7 44.2 333.6 44.6 332.6 45C331.6 45.3 330.6 45.7 329.6 46C328 46.6 326.4 47.2 324.9 47.8C324.5 47.9 324.1 48.1 323.7 48.3C323.7 48.3 323.6 48.3 323.5 48.3C323.5 48.3 323.4 48.3 323.3 48.3C322.3 48.7 321.3 49.2 320.2 49.6C319.4 50 318.5 50.3 317.7 50.7C317.3 50.8 317 51 316.6 51.2C315.7 51.6 314.7 52.1 313.8 52.6C312.8 53.1 311.7 53.7 310.7 54.2C309.7 54.7 308.7 55.3 307.6 55.9C306.2 56.7 304.8 57.5 303.4 58.4C291.3 65.8 280.4 74.9 271.1 85.5C270.7 86 270.3 86.4 269.9 86.9C269.3 87.6 268.7 88.2 268.2 88.9C266.7 90.7 265.3 92.5 263.9 94.3C263.3 95 262.8 95.8 262.2 96.6C245.3 120 235.3 148.8 235.3 179.9V200.3H262.2V180.2C262.2 175.4 262.2 170.7 263 166.1C263.2 165.2 264.4 159.9 265.8 154.1C266.2 156.5 266.7 159 267.5 161.4C272 175.4 285 184.4 299 184.4C313 184.4 305.7 183.9 309.1 182.8C309.2 182.8 309.3 182.8 309.4 182.7C315.4 180.7 320.3 176.5 323.2 170.8C326.2 165 326.7 158.4 324.7 152.2C321.5 142.1 310.6 136.5 300.5 139.7C300.3 139.7 300.1 139.8 299.8 139.9C292 142.9 287.8 151.5 290.4 159.5C290.4 159.5 290.4 159.6 290.4 159.7C289.1 158.4 288.1 156.7 287.5 154.9C283.2 141.4 290.6 127 304.1 122.6C316.3 118.7 330.7 120.3 343.7 126.8C356.7 133.4 366.4 144 370.2 156C370.5 156.8 370.8 157.5 371.2 158.2V200.1H398.1V37.7H377.7H378ZM353.5 108.3C335.7 99.3 315.5 97.3 298.2 102.8C298.2 102.8 298.2 102.8 298.1 102.8C298.1 102.8 298.1 102.8 298 102.8C295.1 103.7 292.4 104.9 289.8 106.4C292.1 103.3 294.4 100.6 296.5 98.4C306.5 88.4 318 80.5 330.9 74.6C343.8 68.8 357.4 65.4 371.7 64.7V120.6C366.4 115.7 360.4 111.5 353.7 108.2L353.5 108.3Z" fill="currentColor"/>
</svg>
